<?xml version="1.0" encoding="UTF-8" standalone="no"?>
<svg
   width="1024"
   height="1024"
   viewBox="0 0 1024 1024"
   fill="none"
   version="1.1"
   id="svg36"
   sodipodi:docname="icon.svg"
   inkscape:version="1.3.2 (091e20ef0f, 2023-11-25, custom)"
   inkscape:export-filename="icon-512x512.png"
   inkscape:export-xdpi="96"
   inkscape:export-ydpi="96"
   xmlns:inkscape="http://www.inkscape.org/namespaces/inkscape"
   xmlns:sodipodi="http://sodipodi.sourceforge.net/DTD/sodipodi-0.dtd"
   xmlns="http://www.w3.org/2000/svg"
   xmlns:svg="http://www.w3.org/2000/svg">
  <sodipodi:namedview
     id="namedview36"
     pagecolor="#ffffff"
     bordercolor="#000000"
     borderopacity="0.25"
     inkscape:showpageshadow="2"
     inkscape:pageopacity="0.0"
     inkscape:pagecheckerboard="0"
     inkscape:deskcolor="#d1d1d1"
     inkscape:zoom="0.65186406"
     inkscape:cx="1369.1505"
     inkscape:cy="618.99409"
     inkscape:window-width="3440"
     inkscape:window-height="1373"
     inkscape:window-x="0"
     inkscape:window-y="0"
     inkscape:window-maximized="1"
     inkscape:current-layer="svg36" />
  <rect
     x="100"
     y="100"
     width="824"
     height="824"
     rx="184"
     fill="url(#paint0_linear_1_2)"
     id="rect1"
     inkscape:label="rect1" />
  <path
     fill-rule="evenodd"
     clip-rule="evenodd"
     d="M516.867 211.683C513.488 209.994 509.512 209.994 506.133 211.683L215.633 356.933C211.568 358.966 209 363.121 209 367.666V655.334C209 659.879 211.568 664.034 215.633 666.067L506.133 811.317C509.512 813.006 513.488 813.006 516.867 811.317L807.367 666.067C811.432 664.034 814 659.879 814 655.334V367.666C814 363.121 811.432 358.966 807.367 356.933L516.867 211.683Z"
     fill="url(#paint1_linear_1_2)"
     id="path1" />
  <g
     filter="url(#filter0_d_1_2)"
     id="g3">
    <path
       d="M506.133 211.683C509.512 209.994 513.488 209.994 516.867 211.683L807.367 356.933C811.432 358.966 814 363.121 814 367.666V655.334C814 659.879 811.432 664.034 807.367 666.067L516.867 811.317C513.488 813.006 509.512 813.006 506.133 811.317L215.633 666.067C211.568 664.034 209 659.879 209 655.334V367.666C209 363.121 211.568 358.966 215.633 356.933L506.133 211.683Z"
       fill="url(#paint2_linear_1_2)"
       fill-opacity="0.2"
       shape-rendering="crispEdges"
       id="path2" />
    <path
       d="M506.133 211.683C509.512 209.994 513.488 209.994 516.867 211.683L807.367 356.933C811.432 358.966 814 363.121 814 367.666V655.334C814 659.879 811.432 664.034 807.367 666.067L516.867 811.317C513.488 813.006 509.512 813.006 506.133 811.317L215.633 666.067C211.568 664.034 209 659.879 209 655.334V367.666C209 363.121 211.568 358.966 215.633 356.933L506.133 211.683Z"
       stroke="url(#paint3_linear_1_2)"
       stroke-width="32"
       stroke-linecap="square"
       stroke-linejoin="round"
       shape-rendering="crispEdges"
       id="path3" />
  </g>
  <g
     filter="url(#filter1_i_1_2)"
     id="g4">
    <path
       d="M512.5 227L798 371V653.5L510.5 795.5L225 653.5V371L512.5 227Z"
       fill="url(#paint4_linear_1_2)"
       fill-opacity="0.2"
       id="path4" />
  </g>
  <path
     d="M511 228L225 370.5L511 516L798 370.5L511 228Z"
     fill="url(#paint5_linear_1_2)"
     fill-opacity="0.3"
     id="path5" />
  <path
     d="M296.914 585.234H725.141"
     stroke="url(#paint6_linear_1_2)"
     id="path6" />
  <g
     filter="url(#filter2_dd_1_2)"
     id="g7">
    <path
       fill-rule="evenodd"
       clip-rule="evenodd"
       d="M297.091 421.017C297.091 413.285 303.359 407.017 311.091 407.017H711.669C719.401 407.017 725.669 413.285 725.669 421.017V607.306C725.669 615.038 719.401 621.306 711.669 621.306H311.091C303.359 621.306 297.091 615.038 297.091 607.306V421.017ZM332.805 447.732C332.805 444.97 335.044 442.732 337.805 442.732H363.52C366.282 442.732 368.52 444.97 368.52 447.732V544.877C368.52 547.638 366.282 549.877 363.52 549.877H337.805C335.044 549.877 332.805 547.638 332.805 544.877V447.732ZM409.235 442.732C406.474 442.732 404.235 444.97 404.235 447.732V544.877C404.235 547.638 406.474 549.877 409.235 549.877H434.95C437.711 549.877 439.95 547.638 439.95 544.877V447.732C439.95 444.97 437.711 442.732 434.95 442.732H409.235ZM475.665 447.732C475.665 444.97 477.904 442.732 480.665 442.732H506.38C509.141 442.732 511.38 444.97 511.38 447.732V544.877C511.38 547.638 509.141 549.877 506.38 549.877H480.665C477.904 549.877 475.665 547.638 475.665 544.877V447.732ZM552.266 442.571C549.504 442.571 547.266 444.809 547.266 447.571V544.716C547.266 547.477 549.504 549.716 552.266 549.716H577.981C580.742 549.716 582.981 547.477 582.981 544.716V447.571C582.981 444.809 580.742 442.571 577.981 442.571H552.266Z"
       fill="url(#paint7_linear_1_2)"
       id="path7" />
  </g>
  <path
     d="M297.091 585.592H725.669V609.306C725.669 615.934 720.297 621.306 713.669 621.306H309.091C302.463 621.306 297.091 615.934 297.091 609.306V585.592Z"
     fill="#472EA8"
     id="path8"
     style="fill:#2e41a8;fill-opacity:1" />
  <defs
     id="defs36">
    <filter
       id="filter0_d_1_2"
       x="189"
       y="194.416"
       width="645"
       height="642.167"
       filterUnits="userSpaceOnUse"
       color-interpolation-filters="sRGB">
      <feFlood
         flood-opacity="0"
         result="BackgroundImageFix"
         id="feFlood8" />
      <feColorMatrix
         in="SourceAlpha"
         type="matrix"
         values="0 0 0 0 0 0 0 0 0 0 0 0 0 0 0 0 0 0 127 0"
         result="hardAlpha"
         id="feColorMatrix8" />
      <feOffset
         dy="4"
         id="feOffset8" />
      <feGaussianBlur
         stdDeviation="2"
         id="feGaussianBlur8" />
      <feComposite
         in2="hardAlpha"
         operator="out"
         id="feComposite8" />
      <feColorMatrix
         type="matrix"
         values="0 0 0 0 0 0 0 0 0 0 0 0 0 0 0 0 0 0 0.25 0"
         id="feColorMatrix9" />
      <feBlend
         mode="normal"
         in2="BackgroundImageFix"
         result="effect1_dropShadow_1_2"
         id="feBlend9" />
      <feBlend
         mode="normal"
         in="SourceGraphic"
         in2="effect1_dropShadow_1_2"
         result="shape"
         id="feBlend10" />
    </filter>
    <filter
       id="filter1_i_1_2"
       x="225"
       y="227"
       width="573"
       height="568.5"
       filterUnits="userSpaceOnUse"
       color-interpolation-filters="sRGB">
      <feFlood
         flood-opacity="0"
         result="BackgroundImageFix"
         id="feFlood10" />
      <feBlend
         mode="normal"
         in="SourceGraphic"
         in2="BackgroundImageFix"
         result="shape"
         id="feBlend11" />
      <feColorMatrix
         in="SourceAlpha"
         type="matrix"
         values="0 0 0 0 0 0 0 0 0 0 0 0 0 0 0 0 0 0 127 0"
         result="hardAlpha"
         id="feColorMatrix11" />
      <feOffset
         id="feOffset11" />
      <feGaussianBlur
         stdDeviation="8"
         id="feGaussianBlur11" />
      <feComposite
         in2="hardAlpha"
         operator="arithmetic"
         k2="-1"
         k3="1"
         id="feComposite11" />
      <feColorMatrix
         type="matrix"
         values="0 0 0 0 0 0 0 0 0 0 0 0 0 0 0 0 0 0 1 0"
         id="feColorMatrix12" />
      <feBlend
         mode="normal"
         in2="shape"
         result="effect1_innerShadow_1_2"
         id="feBlend12" />
    </filter>
    <filter
       id="filter2_dd_1_2"
       x="286.091"
       y="392.017"
       width="450.579"
       height="237.289"
       filterUnits="userSpaceOnUse"
       color-interpolation-filters="sRGB">
      <feFlood
         flood-opacity="0"
         result="BackgroundImageFix"
         id="feFlood12" />
      <feColorMatrix
         in="SourceAlpha"
         type="matrix"
         values="0 0 0 0 0 0 0 0 0 0 0 0 0 0 0 0 0 0 127 0"
         result="hardAlpha"
         id="feColorMatrix13" />
      <feOffset
         dy="-4"
         id="feOffset13" />
      <feGaussianBlur
         stdDeviation="5.5"
         id="feGaussianBlur13" />
      <feComposite
         in2="hardAlpha"
         operator="out"
         id="feComposite13" />
      <feColorMatrix
         type="matrix"
         values="0 0 0 0 1 0 0 0 0 1 0 0 0 0 1 0 0 0 0.14 0"
         id="feColorMatrix14" />
      <feBlend
         mode="normal"
         in2="BackgroundImageFix"
         result="effect1_dropShadow_1_2"
         id="feBlend14" />
      <feColorMatrix
         in="SourceAlpha"
         type="matrix"
         values="0 0 0 0 0 0 0 0 0 0 0 0 0 0 0 0 0 0 127 0"
         result="hardAlpha"
         id="feColorMatrix15" />
      <feOffset
         dy="4"
         id="feOffset15" />
      <feGaussianBlur
         stdDeviation="2"
         id="feGaussianBlur15" />
      <feComposite
         in2="hardAlpha"
         operator="out"
         id="feComposite15" />
      <feColorMatrix
         type="matrix"
         values="0 0 0 0 0 0 0 0 0 0 0 0 0 0 0 0 0 0 0.25 0"
         id="feColorMatrix16" />
      <feBlend
         mode="normal"
         in2="effect1_dropShadow_1_2"
         result="effect2_dropShadow_1_2"
         id="feBlend16" />
      <feBlend
         mode="normal"
         in="SourceGraphic"
         in2="effect2_dropShadow_1_2"
         result="shape"
         id="feBlend17" />
    </filter>
    <linearGradient
       id="paint0_linear_1_2"
       x1="512"
       y1="100"
       x2="512"
       y2="924"
       gradientUnits="userSpaceOnUse">
      <stop
         stop-color="#2E114A"
         id="stop17"
         offset="0"
         style="stop-color:#3c56d6;stop-opacity:1;" />
      <stop
         offset="0.943398"
         stop-color="#07051B"
         id="stop18"
         style="stop-color:#03031d;stop-opacity:1;" />
    </linearGradient>
    <linearGradient
       id="paint1_linear_1_2"
       x1="511.5"
       y1="210.416"
       x2="511.5"
       y2="812.584"
       gradientUnits="userSpaceOnUse">
      <stop
         stop-color="#2E114A"
         id="stop19"
         offset="0"
         style="stop-color:#111e4a;stop-opacity:1;" />
      <stop
         offset="0.943398"
         stop-color="#07051B"
         id="stop20"
         style="stop-color:#333333;stop-opacity:1;" />
    </linearGradient>
    <linearGradient
       id="paint2_linear_1_2"
       x1="271.391"
       y1="814"
       x2="271.391"
       y2="209"
       gradientUnits="userSpaceOnUse">
      <stop
         stop-opacity="0.73"
         id="stop21" />
      <stop
         offset="1"
         stop-color="#F1F1F1"
         stop-opacity="0.94"
         id="stop22" />
    </linearGradient>
    <linearGradient
       id="paint3_linear_1_2"
       x1="172.133"
       y1="251.539"
       x2="814"
       y2="814"
       gradientUnits="userSpaceOnUse">
      <stop
         stop-color="#6AD2FA"
         id="stop23" />
      <stop
         offset="0.494792"
         stop-color="#7669FA"
         id="stop24" />
      <stop
         offset="0.74479198"
         stop-color="#8850E4"
         id="stop25"
         style="stop-color:#5055e4;stop-opacity:1;" />
      <stop
         offset="1"
         stop-color="#CE0EBB"
         id="stop26"
         style="stop-color:#0e41ce;stop-opacity:1;" />
    </linearGradient>
    <linearGradient
       id="paint4_linear_1_2"
       x1="284.297"
       y1="792"
       x2="284.297"
       y2="227"
       gradientUnits="userSpaceOnUse">
      <stop
         stop-opacity="0.73"
         id="stop27" />
      <stop
         offset="1"
         stop-color="#F1F1F1"
         stop-opacity="0.94"
         id="stop28" />
    </linearGradient>
    <linearGradient
       id="paint5_linear_1_2"
       x1="513.915"
       y1="230"
       x2="513.915"
       y2="395.12"
       gradientUnits="userSpaceOnUse">
      <stop
         stop-color="#621EA6"
         stop-opacity="0.89"
         id="stop29"
         offset="0"
         style="stop-color:#1e5aa6;stop-opacity:0.88999999;" />
      <stop
         offset="1"
         stop-color="#CCCAD1"
         stop-opacity="0"
         id="stop30" />
    </linearGradient>
    <linearGradient
       id="paint6_linear_1_2"
       x1="512.464"
       y1="585.234"
       x2="512.464"
       y2="586.234"
       gradientUnits="userSpaceOnUse">
      <stop
         stop-opacity="0"
         id="stop31" />
      <stop
         offset="0.229167"
         stop-opacity="0.37"
         id="stop32" />
      <stop
         offset="0.645833"
         stop-opacity="0.046875"
         id="stop33" />
      <stop
         offset="1"
         stop-opacity="0"
         id="stop34" />
    </linearGradient>
    <linearGradient
       id="paint7_linear_1_2"
       x1="511.38"
       y1="407.017"
       x2="511.38"
       y2="621.306"
       gradientUnits="userSpaceOnUse">
      <stop
         stop-color="#E9E9E9"
         id="stop35" />
      <stop
         offset="1"
         stop-color="#A59ADE"
         id="stop36" />
    </linearGradient>
  </defs>
  <g
     id="g2"
     transform="matrix(2.9514089,0,0,2.9514089,578.11072,438.08637)">
    <path
       style="fill:#fdcb4b"
       d="m 36.264785,49.652778 c -0.05867,-0.190972 -0.488479,-1.634812 -0.955136,-3.208533 -1.499242,-5.055933 -4.493662,-11.823195 -6.89114,-15.573683 -0.952825,-1.49055 -0.952825,-1.49055 -2.394,0.05565 -2.033038,2.181195 -5.515793,3.472951 -9.459515,3.50854 -1.545062,0.01394 -3.393365,1.477733 -5.181095,4.103239 -7.1202015,10.456918 -13.0597152,2.51697 -6.3380696,-8.472738 1.4316198,-2.34066 3.7671357,-7.023027 4.5822986,-9.186837 0.3647683,-0.96826 0.934584,-2.28076 1.266258,-2.916667 0.500062,-0.958751 0.605634,-1.641205 0.618217,-3.996332 0.01855,-3.472032 0.435419,-4.094224 3.109547,-4.6411231 1.963307,-0.4015255 2.112545,-1.3353366 0.658447,-4.1200218 -1.290626,-2.4716261 -0.905862,-3.5199539 1.32456,-3.6088972 1.931137,-0.077009 2.403653,0.720173 1.464971,2.4715499 -0.354879,0.6621287 -0.489358,1.3067997 -0.390915,1.8739933 0.589444,3.3961701 1.553923,3.7576563 1.301778,0.4879055 -0.202155,-2.6214885 0.115787,-3.0443938 1.307699,-1.7394174 1.244436,1.3624836 1.655754,1.1686293 1.655754,-0.7803572 0,-2.3076872 1.554606,-3.47210714 3.351595,-2.5103878 0.790172,0.4228872 0.664724,1.050686 -0.574479,2.8749408 -1.134615,1.6702898 -1.441179,2.9486192 -0.707127,2.9486192 0.221827,0 0.770801,-0.5341115 1.219941,-1.1869145 1.952255,-2.8375062 4.120668,-4.247216 3.835712,-2.493641 -0.463434,2.8519116 -0.01444,3.8279958 2.145156,4.6634312 6.364378,2.4620471 13.995291,9.3536881 17.981354,16.2393461 0.401079,0.692838 0.417778,0.773063 0.05811,0.279174 -6.94301,-9.533992 -12.272162,-14.271469 -18.45582,-16.4067452 -2.364236,-0.8163931 -2.9077,1.5522611 -0.590551,2.5738802 3.446028,1.519337 4.958973,2.781187 4.077396,3.400693 -3.532965,2.482702 -3.661848,3.976512 -0.825932,9.572922 1.911738,3.772635 3.834225,3.359752 7.512425,-1.613406 0.968026,-1.308832 1.215427,-1.36925 2.034913,-0.496948 0.828842,0.882262 0.776541,1.053012 -0.586228,1.913904 -2.251493,1.42232 -2.461173,1.808924 -3.018726,5.565873 -0.576758,3.886351 -0.45692,5.460458 0.502511,6.600678 1.89179,2.248264 7.417435,1.66164 9.519437,-1.010622 C 50,34.091745 50,34.091745 50,36.07365 c 0,1.981906 0,1.981906 -1.333333,1.981906 -2.728067,0 -2.465456,2.699433 0.667022,6.856466 1.179586,1.565398 0.941403,2.142227 -1.054817,2.55454 -1.955877,0.40398 -3.45205,1.093976 -4.224702,1.948324 -0.639205,0.706791 -7.580216,0.918773 -7.789385,0.237892 z m 6.494213,-1.587642 c 4.207632,-2.146573 4.292816,-6.503061 0.163833,-8.378726 -3.446548,-1.565656 -5.659227,0.118647 -5.919561,4.506001 -0.226625,3.819268 2.398398,5.585507 5.755728,3.872725 z M 5.4009156,37.993748 c 0.8852096,-1.263814 0.212995,-3.271526 -1.09536,-3.271526 -0.7855464,0 -1.5277778,0.944658 -1.5277778,1.944445 0,0.999786 0.7422314,1.944444 1.5277778,1.944444 0.3701717,0 0.8539078,-0.272641 1.09536,-0.617363 z M 34.94435,35.997021 c 3.49482,-1.825779 3.535781,-7.108132 0.05512,-7.108132 -2.894106,0 -4.230677,2.1714 -3.283179,5.333867 0.550867,1.838631 1.795445,2.522699 3.22806,1.774265 z M 15.763889,32.603562 C 16.557457,32.10311 16.55424,31.641069 15.751939,30.887347 14.126191,29.360036 12.5,29.531846 12.5,31.230921 c 0,1.908742 1.448095,2.517743 3.263889,1.372641 z M 5.4722094,32.511499 c 2.2311391,-1.360407 5.5085276,-6.979412 7.4243026,-12.72879 1.105243,-3.316914 3.524318,-6.490894 6.417624,-8.420331 1.276471,-0.85123 2.309616,-2.6785773 1.656181,-2.929324 -0.239499,-0.091905 -0.672104,0.047067 -0.961344,0.308826 -0.321544,0.2909932 -1.100068,0.5093051 -2.003543,0.5618292 -5.345811,0.310782 -6.122692,0.9137868 -6.043396,4.6908048 0.04803,2.287644 -0.02743,2.708327 -0.778237,4.338819 -0.457281,0.993056 -1.3136094,2.987499 -1.9029511,4.432096 -0.5893417,1.444597 -1.9811264,4.21621 -3.0928548,6.159141 -2.4776071,4.330032 -2.5528425,4.707052 -0.7157817,3.586929 z M 21.009291,32.047125 c 1.811769,-0.859741 1.904484,-2.215716 0.250777,-3.667689 -2.680553,-2.353558 -4.970425,-1.211911 -4.074855,2.031575 0.566246,2.050775 1.819916,2.587152 3.824078,1.636114 z m 5.503818,-4.26377 c 1.557147,-0.592027 1.525209,-2.656648 -0.06039,-3.903881 -1.597012,-1.25621 -5.088334,-0.265941 -5.292983,1.501286 -0.216943,1.8734 2.976094,3.306435 5.353375,2.402595 z m -0.881051,-6.32553 c 1.419106,-1.568095 1.012025,-3.050971 -0.758675,-2.763626 -2.229183,0.361747 -2.891937,1.368055 -1.691565,2.568427 0.799332,0.799332 1.829254,0.881381 2.45024,0.195199 z m -7.587323,-0.399092 c 1.833786,-1.968339 -1.016927,-4.77846 -2.918472,-2.876915 -0.833248,0.833248 -0.869815,1.782039 -0.106102,2.752943 0.743748,0.945523 2.203443,1.005353 3.024574,0.123972 z M 26.858193,9.4444444 c 0.785956,-1.6153488 1.140239,-3.8921664 0.603902,-3.8810105 -0.435466,0.00906 -2.050766,2.557737 -2.33252,3.680336 -0.487869,1.9438251 0.807323,2.0941831 1.728618,0.2006745 z M 24.182627,8.5812891 c 0.218851,-0.4089268 0.225346,-0.6733166 0.02155,-0.8771162 -0.428186,-0.4281862 -1.12444,0.2449464 -0.948655,0.9171514 0.185094,0.7077978 0.534967,0.6926893 0.927109,-0.040035 z M 17.612576,3.9163535 c 1.01482,-1.059244 0.874661,-1.8045474 -0.361621,-1.9229309 -2.023707,-0.1937856 -2.828286,0.51586 -2.264904,1.9976658 0.391059,1.0285634 1.602524,0.9940925 2.626525,-0.074735 z m 7.137088,-0.3346188 c 0.879006,-0.9409795 0.982772,-1.3492982 0.472558,-1.8595125 -0.867025,-0.86702534 -3,0.064811 -3,1.3106146 0,1.6437233 1.250941,1.9153967 2.527442,0.5488979 z"
       id="path3-6" />
    <path
       style="fill:#f3980d"
       d="M 44.053514,49.416006 C 44.74369,48.653371 45.921079,48.056662 47.638889,47.598915 49.919667,46.991153 50,47.025591 50,48.611111 50,50 50,50 46.762503,50 c -3.237496,0 -3.237496,0 -2.708989,-0.583994 z m -5.633008,-1.346625 c -2.137921,-1.303583 -1.991908,-6.254219 0.24595,-8.339102 1.746313,-1.626938 6.736124,0.453933 7.305568,3.046597 0.780489,3.553543 -4.422752,7.20025 -7.551518,5.292505 z M 49.21838,44.791667 c -3.057643,-4.312018 -3.256185,-6.736111 -0.551713,-6.736111 1.333333,0 1.333333,0 1.333333,3.75 0,4.099251 0.0021,4.091314 -0.78162,2.986111 z M 3.2101955,37.993748 c -0.8852096,-1.263814 -0.212995,-3.271526 1.0953601,-3.271526 0.7855463,0 1.5277777,0.944658 1.5277777,1.944445 0,0.999786 -0.7422314,1.944444 -1.5277777,1.944444 -0.3701718,0 -0.8539079,-0.272641 -1.0953601,-0.617363 z m 1.9088521,-0.09692 C 6.0228384,36.993035 5.4631506,35 4.3055556,35 c -0.751796,0 -1.25,0.704442 -1.25,1.767453 0,0.753283 0.648674,1.56588 1.25,1.56588 0.2073412,0 0.5734127,-0.196428 0.813492,-0.436508 z M 41.226441,36.844461 c -2.141995,-0.975309 -2.553938,-2.693902 -1.82426,-7.61067 0.557553,-3.756949 0.767233,-4.143553 3.018726,-5.565873 1.364902,-0.86224 1.436447,-1.117521 0.547301,-1.952831 -0.866458,-0.813995 -1.030102,-0.770061 -1.995986,0.535875 -3.6782,4.973158 -5.600687,5.386041 -7.512425,1.613406 -2.835916,-5.59641 -2.707033,-7.09022 0.825932,-9.572922 0.881577,-0.619506 -0.631368,-1.881356 -4.077396,-3.400693 -1.280051,-0.564368 -1.937211,-2.1428315 -1.105999,-2.6565491 0.117396,-0.072554 0.170695,0.3263188 0.118444,0.8863842 -0.09436,1.0114199 -0.08219,1.0242429 1.800443,1.8976479 C 37.357551,13.957827 50,28.112978 50,32.267877 c 0,3.660974 -5.02625,6.282836 -8.773559,4.576584 z M 32.725973,35.852206 C 31.4989,34.88699 31.015142,32.084048 31.810257,30.546463 c 0.890506,-1.722047 3.765843,-2.263484 4.992336,-0.940076 2.393757,2.582907 -1.380981,8.366209 -4.07662,6.245819 z M 13.611111,33.137782 c -1.0764,-0.377517 -1.537046,-2.438485 -0.700247,-3.132966 0.753726,-0.625537 3.478025,0.817874 3.478025,1.842757 0,0.681985 -1.941189,1.58362 -2.777778,1.290209 z M 4.1666667,32.756364 c 0,-0.164556 0.909596,-1.888863 2.0213244,-3.831794 1.1117284,-1.942931 2.5035131,-4.714544 3.0928548,-6.159141 0.5893417,-1.444597 1.4456701,-3.43904 1.9029511,-4.432096 0.750808,-1.630492 0.826264,-2.051175 0.778237,-4.338819 -0.0793,-3.777018 0.697585,-4.3800228 6.043396,-4.6908048 0.903475,-0.052524 1.681999,-0.270836 2.003543,-0.5618292 0.28924,-0.2617588 0.721845,-0.4007305 0.961344,-0.308826 0.653435,0.2507467 -0.37971,2.078094 -1.656181,2.929324 -2.893306,1.929437 -5.312381,5.103417 -6.417624,8.420331 -2.309815,6.931922 -8.7298453,16.472899 -8.7298453,12.973655 z M 17.946399,31.977299 c -1.112021,-1.22877 -1.234437,-4.184669 -0.196313,-4.740257 1.157683,-0.619573 4.263744,1.141495 4.63712,2.629146 0.462037,1.8409 -3.136973,3.55183 -4.440807,2.111111 z m 4.970268,-4.311331 c -2.040573,-0.90073 -2.37101,-2.591594 -0.722811,-3.698662 1.931025,-1.297037 4.488235,-0.664135 5.307429,1.313573 0.884686,2.135821 -1.885015,3.576722 -4.584618,2.385089 z m 0.265151,-6.403342 c -0.858384,-0.858384 -0.863081,-1.408828 -0.01675,-1.963363 1.873028,-1.227255 3.794748,-0.662017 3.186687,0.937306 -0.680085,1.78876 -1.984887,2.211103 -3.169933,1.026057 z m -4.969514,-2.57009 c -0.150746,-0.395889 -0.11884,-0.427795 0.155498,-0.155499 0.189839,0.188426 0.275187,0.412567 0.189662,0.498091 -0.08552,0.08552 -0.240846,-0.06864 -0.34516,-0.342592 z m -3.490082,-0.186301 c 0,-0.05768 0.21875,-0.276432 0.486111,-0.486111 0.440571,-0.34552 0.450396,-0.335695 0.104877,0.104876 -0.362881,0.462708 -0.590988,0.609855 -0.590988,0.381235 z m 10.385869,-8.06966 C 24.856532,9.7810215 25.217074,8.6574382 26.201199,7.0300471 27.348603,5.1326515 27.909364,5.0727899 27.653622,6.875 c -0.363747,2.5633193 -2.03259,4.898278 -2.545531,3.561575 z M 23.25292,8.6113878 c -0.07986,-0.3054034 -0.03194,-0.6252806 0.106491,-0.7108381 0.138435,-0.085558 0.255676,0.070568 0.260534,0.3469456 0.0082,0.4688224 0.03617,0.4663626 0.416667,-0.036698 C 24.507051,7.5888214 24.579273,7.84015 24.156893,8.6293726 23.787062,9.3204082 23.436509,9.3134338 23.25292,8.6113878 Z M 16.111111,4.6157309 c 0,-0.05857 0.250173,-0.1719128 0.555939,-0.2518725 0.305766,-0.07996 0.485889,-0.032039 0.400273,0.1064913 -0.149514,0.2419189 -0.956212,0.3645682 -0.956212,0.1453812 z M 22.852509,4.251947 C 23.122778,4.181518 23.497778,4.18615 23.685842,4.26224 23.873907,4.33833 23.652782,4.3959532 23.194444,4.3902922 22.736111,4.3846322 22.58224,4.3223762 22.852509,4.251947 Z"
       id="path2-2" />
    <path
       style="fill:#6c4824"
       d="M 3.4920635,37.896825 C 2.5882727,36.993035 3.1479605,35 4.3055556,35 c 0.7517959,0 1.25,0.704442 1.25,1.767453 0,0.753283 -0.6486741,1.56588 -1.25,1.56588 -0.2073413,0 -0.5734127,-0.196428 -0.8134921,-0.436508 z M 46.344787,25.620106 C 40.689869,18.145424 35.312704,13.016091 31.041667,11.022304 27.757197,9.4890613 28.41638,7.3625111 31.761069,8.701482 c 7.877541,3.153596 18.364258,14.318728 18.180598,19.356753 -0.08056,2.209755 -0.08056,2.209755 -3.59688,-2.438129 z M 15.497032,21.287973 c -1.792879,-1.362139 -0.383102,-4.203526 1.721583,-3.469829 1.40502,0.489792 1.768401,2.108981 0.710678,3.166704 -0.746721,0.746722 -1.693141,0.864671 -2.432261,0.303125 z M 23.611111,8.0719492 c 0,-0.3145721 0.125,-0.5719492 0.277778,-0.5719492 0.152778,0 0.277778,0.1801229 0.277778,0.4002731 0,0.2201501 -0.125,0.4775273 -0.277778,0.5719491 -0.152778,0.094422 -0.277778,-0.085701 -0.277778,-0.400273 z M 15.369246,4.5047652 C 14.771135,4.128141 14.644885,2.8947973 15.152483,2.3871993 c 0.778897,-0.7788971 3.041961,-0.5106287 3.041961,0.3606006 0,0.9998334 -2.026342,2.2599973 -2.825198,1.7569653 z M 22.407407,3.9814815 C 22.029161,3.6032353 22.240366,2.4818559 22.794156,1.9280664 23.468101,1.2541209 24.92914,1.2821205 25.364164,1.9773184 26.062761,3.0937235 23.355022,4.929096 22.407407,3.9814815 Z"
       id="path1-9" />
  </g>
</svg>
